<svg fill="none" height="24" viewBox="0 0 177 24" width="177" xmlns="http://www.w3.org/2000/svg"><path d="m14.7583 0c-7.58901 0-13.74163 5.37213-13.74163 12 0 1.7353.42606 3.3844 1.18539 4.8736-.55684 1.0812-1.29087 1.9499-2.20206 2.5999 1.67473.8371 3.3305 1.1505 4.97148.9465 2.49312 2.2086 5.95642 3.58 9.78682 3.58 7.5891 0 13.7417-5.3721 13.7417-12 0-6.62787-6.1526-12-13.7417-12z" fill="#a78859"/><path d="m21.4681 13.4404c-.3485.5681-.7013 1.1279-1.1192 1.6352-.5354.6688-1.1129 1.2977-1.7281 1.8805-.5648.5325-1.1381 1.0545-1.7281 1.5367-.7853.6415-1.6021 1.2453-2.4043 1.8679-.0546.0524-.1365.0524-.1911 0-.7055-.5388-1.4299-1.0545-2.1165-1.6247-.7224-.5996-1.4132-1.2327-2.1103-1.8784-.25831-.239-.50817-.4864-.75175-.7443-1.72393.6898-3.28827 1.2831-4.51875 1.6981 2.70873-1.8134 6.1755-3.7987 9.0018-5.3102-1.9759.87-5.90673 1.9182-6.36868 1.1761-.39476-.6331-.63623-1.3627-.77902-2.1132-.05459-.218-.09028-.4193-.12808-.6268v-.7883c.0084-.044.0168-.088.0273-.132.06929-.34174.11339-.68346.21208-1.02518.33177-1.12997 1.0478-2.07964 2.00111-2.65616.88821-.56393 1.93179-.761 2.94389-.55765.9869.1761 1.8856.72117 2.545 1.53668.0315.04821.0608.10062.0839.15303.1722-.18658.2982-.32913.4326-.4654 1.6924-1.71906 4.3193-1.72954 6.0222-.02306.6236.61635 1.0688 1.41508 1.2809 2.30187 1.8835-.3522 3.725-.61425 3.725-.61425-1.4174.80712-4.4914 2.27252-7.975 3.82802 1.4783-.4276 4.9366-1.1614 3.6431.9455z" fill="#fff"/><g fill="#22232d"><path d="m43.64 5c1.2133 0 2.2667.2 3.16.6.9067.4 1.6.97334 2.08 1.72.48.74667.72 1.63334.72 2.66 0 1.0133-.24 1.9-.72 2.66-.48.7467-1.1733 1.32-2.08 1.72-.8933.4-1.9467.6-3.16.6h-3.16v4.04h-2.6v-14zm-.12 7.76c1.1333 0 1.9933-.24 2.58-.72s.88-1.1667.88-2.06c0-.89333-.2933-1.58-.88-2.06s-1.4467-.72-2.58-.72h-3.04v5.56z"/><path d="m60.9564 19-2.86-4.1c-.12.0133-.3.02-.54.02h-3.16v4.08h-2.6v-14h5.76c1.2133 0 2.2667.2 3.16.6.9067.4 1.6.97334 2.08 1.72.48.74667.72 1.63334.72 2.66 0 1.0533-.26 1.96-.78 2.72-.5067.76-1.24 1.3267-2.2 1.7l3.22 4.6zm-.06-9.02c0-.89333-.2933-1.58-.88-2.06s-1.4467-.72-2.58-.72h-3.04v5.58h3.04c1.1333 0 1.9933-.24 2.58-.72.5867-.4933.88-1.1867.88-2.08z"/><path d="m72.5653 19.2c-1.4267 0-2.7133-.3067-3.86-.92-1.1467-.6267-2.0467-1.4867-2.7-2.58-.6533-1.1067-.98-2.34-.98-3.7s.3267-2.58666.98-3.68c.6533-1.10666 1.5533-1.96666 2.7-2.58 1.1467-.62666 2.4333-.94 3.86-.94s2.7133.31334 3.86.94c1.1467.61334 2.0467 1.46667 2.7 2.56.6533 1.09334.98 2.3267.98 3.7s-.3267 2.6067-.98 3.7-1.5533 1.9533-2.7 2.58c-1.1467.6133-2.4333.92-3.86.92zm0-2.28c.9333 0 1.7733-.2067 2.52-.62.7467-.4267 1.3333-1.0133 1.76-1.76.4267-.76.64-1.6067.64-2.54s-.2133-1.7733-.64-2.52c-.4267-.76-1.0133-1.34666-1.76-1.76-.7467-.42666-1.5867-.64-2.52-.64s-1.7733.21334-2.52.64c-.7467.41334-1.3333 1-1.76 1.76-.4267.7467-.64 1.5867-.64 2.52s.2133 1.78.64 2.54c.4267.7467 1.0133 1.3333 1.76 1.76.7467.4133 1.5867.62 2.52.62z"/><path d="m92.3812 11.72c.7734.2533 1.3867.68 1.84 1.28.4534.5867.68 1.32.68 2.2 0 1.2133-.4666 2.1533-1.3999 2.82-.9334.6533-2.2934.98-4.0801.98h-6.9599v-14h6.5599c1.6534 0 2.9267.32667 3.8201.98.8933.64 1.3399 1.52667 1.3399 2.66 0 .69334-.16 1.30667-.48 1.84-.32.5333-.76.9467-1.32 1.24zm-7.32-4.68v3.86h3.68c.9067 0 1.6001-.16 2.0801-.48.4933-.3333.7399-.81333.7399-1.44 0-.64-.2466-1.12-.7399-1.44-.48-.33333-1.1734-.5-2.0801-.5zm4.2 9.92c2.0134 0 3.02-.6733 3.02-2.02s-1.0066-2.02-3.02-2.02h-4.2v4.04z"/><path d="m103.816 19.2c-1.427 0-2.713-.3067-3.8599-.92-1.1467-.6267-2.0467-1.4867-2.7-2.58-.6533-1.1067-.98-2.34-.98-3.7s.3267-2.58666.98-3.68c.6533-1.10666 1.5533-1.96666 2.7-2.58 1.1469-.62666 2.4329-.94 3.8599-.94s2.713.31334 3.86.94c1.147.61334 2.047 1.46667 2.7 2.56.653 1.09334.98 2.3267.98 3.7s-.327 2.6067-.98 3.7-1.553 1.9533-2.7 2.58c-1.147.6133-2.433.92-3.86.92zm0-2.28c.933 0 1.773-.2067 2.52-.62.747-.4267 1.333-1.0133 1.76-1.76.427-.76.64-1.6067.64-2.54s-.213-1.7733-.64-2.52c-.427-.76-1.013-1.34666-1.76-1.76-.747-.42666-1.587-.64-2.52-.64s-1.773.21334-2.52.64c-.747.41334-1.3332 1-1.7599 1.76-.4267.7467-.64 1.5867-.64 2.52s.2133 1.78.64 2.54c.4267.7467 1.0129 1.3333 1.7599 1.76.747.4133 1.587.62 2.52.62z"/><path d="m126.152 5v14h-2.14l-7.72-9.48v9.48h-2.58v-14h2.14l7.72 9.48v-9.48z"/><path d="m136.043 19.2c-1.426 0-2.713-.3067-3.86-.92-1.146-.6267-2.046-1.4867-2.7-2.58-.653-1.1067-.98-2.34-.98-3.7s.327-2.58666.98-3.68c.654-1.10666 1.554-1.96666 2.7-2.58 1.147-.62666 2.434-.94 3.86-.94 1.427 0 2.714.31334 3.86.94 1.147.61334 2.047 1.46667 2.7 2.56.654 1.09334.98 2.3267.98 3.7s-.326 2.6067-.98 3.7c-.653 1.0933-1.553 1.9533-2.7 2.58-1.146.6133-2.433.92-3.86.92zm0-2.28c.934 0 1.774-.2067 2.52-.62.747-.4267 1.334-1.0133 1.76-1.76.427-.76.64-1.6067.64-2.54s-.213-1.7733-.64-2.52c-.426-.76-1.013-1.34666-1.76-1.76-.746-.42666-1.586-.64-2.52-.64-.933 0-1.773.21334-2.52.64-.746.41334-1.333 1-1.76 1.76-.426.7467-.64 1.5867-.64 2.52s.214 1.78.64 2.54c.427.7467 1.014 1.3333 1.76 1.76.747.4133 1.587.62 2.52.62z"/><path d="m146.109 19.14c-.454 0-.84-.1533-1.16-.46-.32-.32-.48-.72-.48-1.2 0-.4933.153-.8933.46-1.2.32-.3067.713-.46 1.18-.46.466 0 .853.1533 1.16.46.32.3067.48.7067.48 1.2 0 .48-.16.88-.48 1.2-.32.3067-.707.46-1.16.46z"/><path d="m159.952 11.72c.773.2533 1.386.68 1.84 1.28.453.5867.68 1.32.68 2.2 0 1.2133-.467 2.1533-1.4 2.82-.934.6533-2.294.98-4.08.98h-6.96v-14h6.56c1.653 0 2.926.32667 3.82.98.893.64 1.34 1.52667 1.34 2.66 0 .69334-.16 1.30667-.48 1.84-.32.5333-.76.9467-1.32 1.24zm-7.32-4.68v3.86h3.68c.906 0 1.6-.16 2.08-.48.493-.3333.74-.81333.74-1.44 0-.64-.247-1.12-.74-1.44-.48-.33333-1.174-.5-2.08-.5zm4.2 9.92c2.013 0 3.02-.6733 3.02-2.02s-1.007-2.02-3.02-2.02h-4.2v4.04z"/><path d="m170.593 14.06v4.94h-2.6v-4.9l-5.5-9.1h2.78l4.1 6.82 4.14-6.82h2.56z"/></g></svg>