<svg width="323" height="211" viewBox="0 0 323 211" fill="none" xmlns="http://www.w3.org/2000/svg">
<path d="M100.121 190V185.52H103.361C106.361 185.52 108.001 183.5 108.001 181.1C108.001 178.68 106.361 176.66 103.361 176.66H96.6811V190H100.121ZM102.901 182.52H100.121V179.66H102.901C103.821 179.66 104.501 180.18 104.501 181.1C104.501 182 103.821 182.52 102.901 182.52Z" fill="black"/>
<path d="M121.913 190L119.193 185.1C120.433 184.66 121.853 183.42 121.853 181.1C121.853 178.62 120.173 176.66 117.213 176.66H110.533V190H113.973V185.52H115.733L117.973 190H121.913ZM116.693 182.52H113.973V179.66H116.693C117.593 179.66 118.353 180.18 118.353 181.08C118.353 182.02 117.593 182.52 116.693 182.52Z" fill="black"/>
<path d="M131.215 190.24C135.295 190.24 138.335 187.4 138.335 183.34C138.335 179.28 135.295 176.44 131.215 176.44C127.135 176.44 124.075 179.28 124.075 183.34C124.075 187.4 127.135 190.24 131.215 190.24ZM131.215 187.2C128.995 187.2 127.575 185.5 127.575 183.34C127.575 181.16 128.995 179.48 131.215 179.48C133.415 179.48 134.835 181.16 134.835 183.34C134.835 185.5 133.415 187.2 131.215 187.2Z" fill="black"/>
<path d="M148.868 190C151.488 190 152.788 188.32 152.788 186.38C152.788 184.7 151.668 183.34 150.248 183.12C151.508 182.84 152.528 181.72 152.528 180.06C152.528 178.38 151.268 176.66 148.628 176.66H141.068V190H148.868ZM147.848 181.78H144.508V179.56H147.848C148.548 179.56 149.028 180.02 149.028 180.66C149.028 181.32 148.548 181.78 147.848 181.78ZM147.968 187.1H144.508V184.7H147.968C148.808 184.7 149.288 185.24 149.288 185.9C149.288 186.62 148.788 187.1 147.968 187.1Z" fill="black"/>
<path d="M162.122 190.24C166.202 190.24 169.242 187.4 169.242 183.34C169.242 179.28 166.202 176.44 162.122 176.44C158.042 176.44 154.982 179.28 154.982 183.34C154.982 187.4 158.042 190.24 162.122 190.24ZM162.122 187.2C159.902 187.2 158.482 185.5 158.482 183.34C158.482 181.16 159.902 179.48 162.122 179.48C164.322 179.48 165.742 181.16 165.742 183.34C165.742 185.5 164.322 187.2 162.122 187.2Z" fill="black"/>
<path d="M184.374 190V176.66H180.914V184L175.514 176.66H171.974V190H175.414V182.28L181.054 190H184.374Z" fill="black"/>
<path d="M194.239 190.24C198.319 190.24 201.359 187.4 201.359 183.34C201.359 179.28 198.319 176.44 194.239 176.44C190.159 176.44 187.099 179.28 187.099 183.34C187.099 187.4 190.159 190.24 194.239 190.24ZM194.239 187.2C192.019 187.2 190.599 185.5 190.599 183.34C190.599 181.16 192.019 179.48 194.239 179.48C196.439 179.48 197.859 181.16 197.859 183.34C197.859 185.5 196.439 187.2 194.239 187.2Z" fill="black"/>
<path d="M205.122 190.24C206.142 190.24 207.002 189.38 207.002 188.36C207.002 187.34 206.142 186.48 205.122 186.48C204.102 186.48 203.242 187.34 203.242 188.36C203.242 189.38 204.102 190.24 205.122 190.24Z" fill="black"/>
<path d="M217.833 190C220.453 190 221.753 188.32 221.753 186.38C221.753 184.7 220.633 183.34 219.213 183.12C220.473 182.84 221.493 181.72 221.493 180.06C221.493 178.38 220.233 176.66 217.593 176.66H210.033V190H217.833ZM216.813 181.78H213.473V179.56H216.813C217.513 179.56 217.993 180.02 217.993 180.66C217.993 181.32 217.513 181.78 216.813 181.78ZM216.933 187.1H213.473V184.7H216.933C217.773 184.7 218.253 185.24 218.253 185.9C218.253 186.62 217.753 187.1 216.933 187.1Z" fill="black"/>
<path d="M231.101 190V184.62L236.141 176.66H232.241L229.381 181.58L226.481 176.66H222.601L227.661 184.62V190H231.101Z" fill="black"/>
<path d="M17.975 158L11.675 141.325H6.275L0 158H4.875L5.7 155.6H12.275L13.1 158H17.975ZM11.1 151.85H6.85L8.975 145.575L11.1 151.85Z" fill="black"/>
<path d="M19.5316 161.075H23.8316V158H33.1566V161.075H37.4816V154.25H35.9816V141.325H23.5566L22.5566 149.775C22.0816 153.575 21.1316 154.25 19.5316 154.5V161.075ZM26.8316 150.1L27.4316 145.075H31.6816V154.25H25.0066C25.9566 153.3 26.6066 151.975 26.8316 150.1Z" fill="black"/>
<path d="M50.3287 158C53.6037 158 55.2287 155.9 55.2287 153.475C55.2287 151.375 53.8287 149.675 52.0537 149.4C53.6287 149.05 54.9037 147.65 54.9037 145.575C54.9037 143.475 53.3287 141.325 50.0287 141.325H40.5787V158H50.3287ZM49.0537 147.725H44.8787V144.95H49.0537C49.9287 144.95 50.5287 145.525 50.5287 146.325C50.5287 147.15 49.9287 147.725 49.0537 147.725ZM49.2037 154.375H44.8787V151.375H49.2037C50.2537 151.375 50.8537 152.05 50.8537 152.875C50.8537 153.775 50.2287 154.375 49.2037 154.375Z" fill="black"/>
<path d="M66.8959 158.3C71.9959 158.3 75.7959 154.75 75.7959 149.675C75.7959 144.6 71.9959 141.05 66.8959 141.05C61.7959 141.05 57.9709 144.6 57.9709 149.675C57.9709 154.75 61.7959 158.3 66.8959 158.3ZM66.8959 154.5C64.1209 154.5 62.3459 152.375 62.3459 149.675C62.3459 146.95 64.1209 144.85 66.8959 144.85C69.6459 144.85 71.4209 146.95 71.4209 149.675C71.4209 152.375 69.6459 154.5 66.8959 154.5Z" fill="black"/>
<path d="M94.2865 158L87.4615 149.125L93.9365 141.325H88.6365L83.5115 148.175V141.325H79.2115V158H83.5115V153.125L84.6365 151.725L89.0115 158H94.2865Z" fill="black"/>
<path d="M113.019 158L106.719 141.325H101.319L95.0439 158H99.9189L100.744 155.6H107.319L108.144 158H113.019ZM106.144 151.85H101.894L104.019 145.575L106.144 151.85Z" fill="black"/>
<path d="M121.988 158V145.075H126.638V141.325H113.012V145.075H117.688V158H121.988Z" fill="black"/>
<path d="M129.934 141.325V158H138.284C142.034 158 144.084 155.475 144.084 152.45C144.084 149.45 142.034 146.925 138.284 146.925H134.234V141.325H129.934ZM137.709 150.675C138.859 150.675 139.709 151.325 139.709 152.45C139.709 153.6 138.859 154.25 137.709 154.25H134.234V150.675H137.709ZM149.609 158V141.325H145.309V158H149.609Z" fill="black"/>
<path d="M169.686 158.3C173.711 158.3 175.886 155.975 176.961 153.825L173.261 152.075C172.711 153.4 171.286 154.5 169.686 154.5C166.961 154.5 165.036 152.4 165.036 149.675C165.036 146.95 166.961 144.85 169.686 144.85C171.286 144.85 172.711 145.95 173.261 147.275L176.961 145.525C175.861 143.325 173.711 141.05 169.686 141.05C164.561 141.05 160.661 144.525 160.661 149.675C160.661 154.8 164.561 158.3 169.686 158.3Z" fill="black"/>
<path d="M203.242 158V141.325H198.942V147.55H192.017V141.325H187.717V158H192.017V151.3H198.942V158H203.242Z" fill="black"/>
<path d="M223.698 158L217.398 141.325H211.998L205.723 158H210.598L211.423 155.6H217.998L218.823 158H223.698ZM216.823 151.85H212.573L214.698 145.575L216.823 151.85Z" fill="black"/>
<path d="M230.479 158V152.4H234.529C238.279 152.4 240.329 149.875 240.329 146.875C240.329 143.85 238.279 141.325 234.529 141.325H226.179V158H230.479ZM233.954 148.65H230.479V145.075H233.954C235.104 145.075 235.954 145.725 235.954 146.875C235.954 148 235.104 148.65 233.954 148.65Z" fill="black"/>
<path d="M251.569 158.3C256.669 158.3 260.469 154.75 260.469 149.675C260.469 144.6 256.669 141.05 251.569 141.05C246.469 141.05 242.644 144.6 242.644 149.675C242.644 154.75 246.469 158.3 251.569 158.3ZM251.569 154.5C248.794 154.5 247.019 152.375 247.019 149.675C247.019 146.95 248.794 144.85 251.569 144.85C254.319 144.85 256.094 146.95 256.094 149.675C256.094 152.375 254.319 154.5 251.569 154.5Z" fill="black"/>
<path d="M262.154 161.075H266.454V158H275.779V161.075H280.104V154.25H278.604V141.325H266.179L265.179 149.775C264.704 153.575 263.754 154.25 262.154 154.5V161.075ZM269.454 150.1L270.054 145.075H274.304V154.25H267.629C268.579 153.3 269.229 151.975 269.454 150.1Z" fill="black"/>
<path d="M291.276 158.3C296.376 158.3 300.176 154.75 300.176 149.675C300.176 144.6 296.376 141.05 291.276 141.05C286.176 141.05 282.351 144.6 282.351 149.675C282.351 154.75 286.176 158.3 291.276 158.3ZM291.276 154.5C288.501 154.5 286.726 152.375 286.726 149.675C286.726 146.95 288.501 144.85 291.276 144.85C294.026 144.85 295.801 146.95 295.801 149.675C295.801 152.375 294.026 154.5 291.276 154.5Z" fill="black"/>
<path d="M322.516 158V141.325H316.541L313.041 150.375L309.566 141.325H303.591V158H307.891V147.15L312.091 158H313.991L318.216 147.15V158H322.516Z" fill="black"/>
<path d="M143.262 75.2816C142.595 75.2824 141.989 74.8895 141.718 74.2796L129.767 47.3835L117.813 74.2796C117.435 75.1311 116.438 75.5148 115.587 75.1365C114.735 74.7583 114.351 73.7613 114.73 72.9098L128.225 42.5454C128.495 41.9359 129.1 41.5429 129.767 41.5429C130.434 41.5429 131.038 41.9359 131.309 42.5454L144.804 72.9098C144.986 73.3187 144.997 73.7831 144.837 74.2007C144.676 74.6183 144.356 74.9549 143.947 75.1365C143.731 75.2329 143.498 75.2823 143.262 75.2816Z" fill="black"/>
<path d="M141.29 52.2111C138.69 49.4869 134.39 49.4795 131.685 52.1946L130.053 53.8332L128.483 52.189C125.883 49.4648 121.583 49.4574 118.878 52.1725C116.174 54.8874 116.089 59.2968 118.689 62.0211L129.673 73.5303L141.1 62.0597C143.805 59.3446 143.89 54.9353 141.29 52.2111Z" fill="#FF3A3A"/>
<path d="M138.201 73.5947H144.949C145.881 73.5947 146.636 74.3499 146.636 75.2816V82.0292C146.636 86.6875 142.86 90.4638 138.201 90.4638H121.332C119.095 90.4638 116.95 89.5751 115.368 87.9934C113.786 86.4116 112.898 84.2662 112.898 82.0292V75.2816C112.898 74.3499 113.653 73.5947 114.584 73.5947H138.201Z" fill="black"/>
<path opacity="0.3" d="M146.636 75.2816V82.0292C146.636 86.6875 142.86 90.4638 138.201 90.4638H129.767C134.425 90.4638 138.201 86.6875 138.201 82.0292V75.2816C138.201 74.3499 137.446 73.5947 136.514 73.5947H144.949C145.881 73.5947 146.636 74.3499 146.636 75.2816Z" fill="#E5E5E5"/>
<path d="M206.995 66.3076C206.328 66.3092 205.722 65.9172 205.45 65.3076L193.463 38.4272L181.545 65.339C181.168 66.191 180.172 66.576 179.32 66.1989C178.468 65.8218 178.083 64.8253 178.46 63.9733L191.915 33.5912C192.185 32.9813 192.789 32.5875 193.456 32.5867C194.123 32.5858 194.727 32.9779 194.999 33.5871L208.534 63.9338C208.716 64.3424 208.729 64.8068 208.568 65.2246C208.408 65.6424 208.089 65.9795 207.68 66.1616C207.465 66.2582 207.231 66.308 206.995 66.3076Z" fill="black"/>
<path d="M201.932 64.6273L208.68 64.6184C209.612 64.6172 210.368 65.3715 210.369 66.3031L210.378 73.0508C210.384 77.709 206.613 81.4903 201.955 81.4964L185.086 81.5186C180.427 81.5247 176.646 77.7534 176.64 73.0951L176.631 66.3475C176.63 65.4158 177.384 64.6596 178.316 64.6584L201.932 64.6273Z" fill="black"/>
<path opacity="0.3" d="M210.369 66.3031L210.378 73.0508C210.384 77.709 206.613 81.4903 201.954 81.4964L193.52 81.5075C198.178 81.5014 201.949 77.7201 201.943 73.0618L201.935 66.3142C201.933 65.3826 201.177 64.6283 200.245 64.6295L208.68 64.6184C209.612 64.6172 210.368 65.3715 210.369 66.3031Z" fill="#E5E5E5"/>
<path d="M157.547 111.093H186.224C187.156 111.093 187.911 111.848 187.911 112.78V114.467C187.911 116.33 186.4 117.841 184.537 117.841H137.304C135.44 117.841 133.93 116.33 133.93 114.467V112.78C133.93 111.848 134.685 111.093 135.617 111.093H157.547Z" fill="black"/>
<path d="M142.364 111.093C142.364 105.503 146.896 100.972 152.486 100.972H169.355C174.945 100.972 179.476 105.503 179.476 111.093H142.364Z" fill="black"/>
<path opacity="0.3" d="M179.476 111.093H172.729C172.729 105.503 168.197 100.972 162.607 100.972H169.355C174.945 100.972 179.476 105.503 179.476 111.093Z" fill="#E5E5E5"/>
<path d="M160.92 20C162.784 20 164.294 21.5105 164.294 23.3738V100.972H157.547V23.3738C157.547 21.5105 159.057 20 160.92 20Z" fill="black"/>
<path d="M163.741 29.9264L187.108 26.501C188.159 26.3504 189.219 26.6996 189.974 27.4447C190.513 27.9795 191.547 28.868 192.351 28.7672L192.367 28.7648C193.344 28.3919 194.153 27.6801 194.648 26.7596C195.158 25.829 196.073 25.1902 197.123 25.0329L205.468 23.8095C207.312 23.5392 209.025 24.8147 209.295 26.6583C209.566 28.5019 208.29 30.2155 206.447 30.4858L199.57 31.4939C198.071 33.5515 195.846 34.9625 193.346 35.4411C190.895 35.747 188.429 35.007 186.551 33.4023L136.212 40.7818C134.874 42.8578 132.724 44.2746 130.289 44.685C127.756 44.9442 125.22 44.2312 123.193 42.6903L116.317 43.6984C114.473 43.9687 112.76 42.6932 112.489 40.8496C112.219 39.006 113.495 37.2924 115.338 37.0221L123.683 35.7987C124.734 35.6482 125.794 35.9973 126.55 36.7425C127.288 37.4822 128.268 37.9317 129.31 38.0087L129.327 38.0063C130.125 37.8721 130.861 36.7243 131.223 36.0574C131.733 35.1268 132.649 34.4879 133.698 34.3306L163.741 29.9264Z" fill="black"/>
</svg>
